# xmcd
# 
# Track frame offsets:
#     183
#     25223
#     41018
#     62243
#     83640
#     94885
#     119903
#     131618
#     145153
#     164285
#     183133
#     205933
#     221495
#     242148
#     255458
#     271375
#     292088
#     309185
#     325183
# 
# Disc length: 4563
# 
# Revision: 2
# Processed by: cddbd v1.5.2PL0 Copyright (c) Steve Scherf et al.
# Submitted via: fre:ac v1.0.31
# 
DISCID=1b11d113
DTITLE=John_Lee_HOOKER - Boogie_Chillun
DYEAR=1989
DGENRE=Blues
TTITLE0=I Just Can't Hold On Much Longer
TTITLE1=I'm Gonna Keep On Walking
TTITLE2=I Was Standing By The Wayside
TTITLE3=T.B. Is Killing Me
TTITLE4=Run On Babe
TTITLE5=This World
TTITLE6=I Like To See You Walk
TTITLE7=It's You I Love Baby
TTITLE8=John Lee Hooker - Kelly - Driftin' And Driftin'
TTITLE9=You Gonna Miss Me
TTITLE10=You're Nice And Kind To Me Lou Della
TTITLE11=I Need Some Money
TTITLE12=King - Joe Josea - I Want To Get Married
TTITLE13=John Lee Hooker - Bernard Besman - Boogie Chillun
TTITLE14=Night Time Is The Right Time
TTITLE15=You Don't Move Me Baby
TTITLE16=Yoy Been Dealin' With The Devil
TTITLE17=Cruel Little Baby
TTITLE18=Big Bill Broonzy - I Got The Key To The Highway
EXTD=
EXTT0=
EXTT1=
EXTT2=
EXTT3=
EXTT4=
EXTT5=
EXTT6=
EXTT7=
EXTT8=
EXTT9=
EXTT10=
EXTT11=
EXTT12=
EXTT13=
EXTT14=
EXTT15=
EXTT16=
EXTT17=
EXTT18=
PLAYORDER=
